<svg xmlns="http://www.w3.org/2000/svg" viewBox="0 0 148 29"><svg width="36" height="29" viewBox="0 0 36 29" fill="none" xmlns="http://www.w3.org/2000/svg" x="0"><path d="M22.73 7.939L23.874 7.959L26.982 4.851L27.132 3.534C24.662 1.337 21.412 0 17.855 0C11.415 0 5.97902 4.382 4.36902 10.318C4.70902 10.081 5.43402 10.258 5.43402 10.258L11.646 9.236C11.646 9.236 11.966 8.706 12.126 8.739C13.4594 7.28028 15.2992 6.38528 17.2699 6.23662C19.2407 6.08795 21.1929 6.69682 22.73 7.939Z" fill="#1A1C3D" /><path d="M31.36 10.329C30.6459 7.70164 29.1807 5.33979 27.144 3.53296L22.742 7.93496C23.6454 8.66103 24.3745 9.58048 24.8755 10.6256C25.3765 11.6707 25.6368 12.8149 25.637 13.974V14.751C27.779 14.751 29.517 16.494 29.517 18.631C29.517 20.768 27.774 22.511 25.637 22.511H17.875L17.098 23.291V27.949L17.875 28.722H25.637C28.3102 28.7148 30.8718 27.6493 32.7614 25.7584C34.651 23.8675 35.7147 21.3052 35.72 18.632C35.716 15.196 33.984 12.152 31.35 10.329H31.36Z" fill="#1A1C3D" /><path d="M10.0939 28.7289H17.8539V22.5169H10.0939C9.54288 22.5172 8.99822 22.3988 8.49695 22.1699L7.37695 22.5129L4.26895 25.6209L3.99695 26.6709C5.7456 28.0136 7.89031 28.7381 10.0949 28.7309L10.0939 28.7289Z" fill="#1A1C3D" /><path d="M10.094 8.54199C7.41821 8.54622 4.85322 9.61105 2.96114 11.5031C1.06906 13.3952 0.00423135 15.9602 4.91191e-10 18.636C-1.53802e-05 20.1941 0.361179 21.731 1.05521 23.126C1.74925 24.521 2.75723 25.7362 4 26.676L8.5 22.176C7.81836 21.8693 7.23982 21.3723 6.83392 20.7446C6.42803 20.117 6.21207 19.3854 6.212 18.638C6.212 16.496 7.955 14.758 10.092 14.758C10.8392 14.7593 11.5702 14.9758 12.1976 15.3815C12.825 15.7873 13.3223 16.3651 13.63 17.046L18.13 12.546C16.284 10.116 13.37 8.54599 10.09 8.54599L10.094 8.54199Z" fill="#1A1C3D" /></svg><svg width="112" height="20" viewBox="0 0 112 20" fill="none" xmlns="http://www.w3.org/2000/svg" x="36"><path d="M7.774 15.3178C5.654 15.3178 3.834 14.5678 2.3 13.0678C0.766 11.5678 0 9.76377 0 7.65977C0 5.55577 0.765 3.75177 2.3 2.25177C3.835 0.751773 5.657 0.000773357 7.774 0.000773357C8.74515 -0.013344 9.7094 0.165947 10.6106 0.528201C11.5117 0.890455 12.3318 1.42843 13.023 2.11077L11.546 3.58778C10.5353 2.61046 9.1788 2.07298 7.773 2.09278C6.243 2.09278 4.943 2.63278 3.877 3.71978C3.35841 4.23475 2.94954 4.84945 2.67506 5.52679C2.40059 6.20413 2.2662 6.93006 2.28 7.66077C2.28 9.20677 2.81 10.5178 3.877 11.6008C4.37842 12.1269 4.9836 12.5431 5.65424 12.8232C6.32488 13.1032 7.04635 13.241 7.773 13.2278C9.331 13.2278 10.618 12.7278 11.643 11.6938C12.243 11.0938 12.643 10.1938 12.783 9.05878H7.777V6.96677H14.821C14.896 7.33877 14.921 7.76678 14.921 8.26678C14.921 10.3228 14.318 11.9528 13.108 13.1618C11.736 14.5968 9.958 15.3118 7.763 15.3118L7.774 15.3178ZM24.144 13.9178C23.184 14.8578 22.014 15.3178 20.632 15.3178C19.25 15.3178 18.078 14.8478 17.12 13.9178C16.162 12.9878 15.682 11.8048 15.682 10.3978C15.682 8.99077 16.162 7.81778 17.12 6.87778C18.078 5.93778 19.25 5.47777 20.632 5.47777C22.014 5.47777 23.186 5.94778 24.144 6.87778C25.102 7.80778 25.582 8.99377 25.582 10.3978C25.582 11.8018 25.102 12.9778 24.144 13.9178ZM18.67 12.5378C18.9195 12.8089 19.2231 13.0246 19.5613 13.1708C19.8995 13.3171 20.2646 13.3907 20.633 13.3868C21.393 13.3868 22.047 13.1048 22.596 12.5368C23.145 11.9688 23.418 11.2568 23.418 10.3968C23.418 9.52677 23.148 8.80878 22.605 8.24678C22.062 7.68478 21.407 7.40678 20.633 7.40678C20.2638 7.40111 19.8976 7.47294 19.5579 7.61763C19.2182 7.76232 18.9127 7.97665 18.661 8.24678C18.118 8.80678 17.848 9.52277 17.848 10.3968C17.848 11.2548 18.121 11.9698 18.67 12.5368V12.5378ZM34.943 13.9178C33.983 14.8578 32.813 15.3178 31.431 15.3178C30.049 15.3178 28.877 14.8478 27.919 13.9178C26.961 12.9878 26.481 11.8048 26.481 10.3978C26.481 8.99077 26.961 7.81778 27.919 6.87778C28.877 5.93778 30.049 5.47777 31.431 5.47777C32.813 5.47777 33.985 5.94778 34.943 6.87778C35.901 7.80778 36.381 8.99377 36.381 10.3978C36.381 11.8018 35.901 12.9778 34.943 13.9178ZM29.469 12.5378C29.7185 12.8089 30.0221 13.0246 30.3603 13.1708C30.6985 13.3171 31.0636 13.3907 31.432 13.3868C32.192 13.3868 32.846 13.1048 33.395 12.5368C33.944 11.9688 34.217 11.2568 34.217 10.3968C34.217 9.52677 33.947 8.80878 33.404 8.24678C32.861 7.68478 32.206 7.40678 31.432 7.40678C31.0628 7.40111 30.6966 7.47294 30.3569 7.61763C30.0172 7.76232 29.7117 7.97665 29.46 8.24678C28.917 8.80678 28.647 9.52277 28.647 10.3968C28.647 11.2548 28.92 11.9698 29.469 12.5368V12.5378ZM42.042 19.7578C40.947 19.7578 40.025 19.4638 39.278 18.8778C38.531 18.2918 37.996 17.6138 37.672 16.8398L39.56 16.0568C39.758 16.5308 40.06 16.9418 40.493 17.2908C40.926 17.6398 41.433 17.8128 42.045 17.8128C42.867 17.8128 43.513 17.5628 43.978 17.0658C44.443 16.5688 44.678 15.8498 44.678 14.9158V14.2158H44.603C44.003 14.9628 43.126 15.3378 42.007 15.3378C40.749 15.3378 39.647 14.8578 38.7 13.8998C38.24 13.4469 37.8769 12.9053 37.6328 12.3077C37.3887 11.7101 37.2686 11.0692 37.28 10.4238C37.2684 9.77433 37.3883 9.12925 37.6323 8.52727C37.8763 7.9253 38.2395 7.37886 38.7 6.92078C39.645 5.95778 40.75 5.47377 42.007 5.47377C42.567 5.47377 43.075 5.57877 43.529 5.79177C43.983 6.00477 44.342 6.26577 44.603 6.57477H44.678V5.78078H46.734V14.6378C46.734 16.3578 46.296 17.6418 45.416 18.4978C44.536 19.3478 43.414 19.7778 42.043 19.7778L42.042 19.7578ZM42.192 13.3858C42.5485 13.3921 42.902 13.3192 43.2269 13.1724C43.5518 13.0256 43.8401 12.8085 44.071 12.5368C44.575 11.9698 44.827 11.2638 44.827 10.4148C44.827 9.55678 44.575 8.83877 44.071 8.26477C43.8414 7.99089 43.5536 7.77172 43.2285 7.62328C42.9035 7.47484 42.5493 7.40087 42.192 7.40678C41.432 7.40678 40.784 7.69477 40.25 8.26477C39.716 8.83477 39.446 9.55277 39.446 10.4148C39.446 11.2608 39.713 11.9698 40.25 12.5368C40.787 13.1038 41.433 13.3858 42.192 13.3858ZM50.394 0.520774V15.0208H48.227V0.520774H50.394ZM56.334 15.3168C54.938 15.3168 53.774 14.8428 52.84 13.8968C51.906 12.9508 51.438 11.7808 51.438 10.3848C51.438 8.94078 51.888 7.75477 52.792 6.83477C53.2161 6.3885 53.7282 6.03508 54.2958 5.79685C54.8635 5.55863 55.4744 5.44078 56.09 5.45077C56.687 5.45077 57.243 5.55877 57.753 5.77777C58.2272 5.97207 58.6586 6.25746 59.023 6.61777C59.3269 6.92025 59.5965 7.25527 59.827 7.61677C60.0175 7.92572 60.1801 8.251 60.313 8.58877L60.538 9.14878L53.944 11.8808C54.444 12.8768 55.244 13.3758 56.336 13.3758C57.332 13.3758 58.143 12.9228 58.764 12.0128L60.444 13.1348C60.069 13.6948 59.541 14.1998 58.856 14.6478C58.171 15.0958 57.328 15.3178 56.332 15.3178L56.334 15.3168ZM53.588 10.2368L57.988 8.40678C57.862 8.09478 57.634 7.84277 57.288 7.65077C56.9401 7.45587 56.5468 7.35651 56.148 7.36277C55.512 7.36277 54.918 7.62277 54.365 8.14577C53.812 8.66877 53.545 9.36777 53.57 10.2378L53.588 10.2368ZM71.918 15.3168C69.948 15.3168 68.298 14.6508 66.966 13.3168C65.634 11.9828 64.966 10.3218 64.966 8.32878C64.966 6.33578 65.632 4.67277 66.966 3.34077C68.3 2.00877 69.949 1.34077 71.918 1.34077C73.935 1.34077 75.574 2.07078 76.831 3.52577L75.636 4.68577C74.736 3.55177 73.486 2.98577 71.916 2.98577C70.456 2.98577 69.23 3.47778 68.216 4.46278C67.202 5.44778 66.712 6.73478 66.712 8.32878C66.712 9.92278 67.212 11.2128 68.216 12.1988C69.22 13.1848 70.449 13.6758 71.916 13.6758C73.522 13.6758 74.893 13.0278 76.016 11.7338L77.211 12.9288C76.5848 13.676 75.7988 14.273 74.911 14.6758C73.9693 15.1089 72.9435 15.3282 71.907 15.3178L71.918 15.3168ZM80.474 15.0208H78.754V1.64377H80.474V15.0208ZM83.277 6.96078C84.162 6.03378 85.277 5.56777 86.659 5.56777C88.041 5.56777 89.156 6.03278 90.041 6.96078C90.926 7.88878 91.368 9.06077 91.368 10.4458C91.368 11.8308 90.928 13.0028 90.041 13.9308C89.154 14.8588 88.041 15.3238 86.659 15.3238C85.277 15.3238 84.162 14.8588 83.277 13.9308C82.392 13.0028 81.95 11.8308 81.95 10.4458C81.95 9.06077 82.39 7.88878 83.277 6.96078ZM84.557 12.8438C85.157 13.4468 85.851 13.7498 86.657 13.7498C87.463 13.7498 88.157 13.4468 88.757 12.8438C89.357 12.2408 89.645 11.4388 89.645 10.4438C89.645 9.44877 89.348 8.64577 88.757 8.04377C88.166 7.44177 87.463 7.13777 86.657 7.13777C85.851 7.13777 85.157 7.44077 84.557 8.04377C83.957 8.64677 83.669 9.44877 83.669 10.4438C83.669 11.4388 83.966 12.2418 84.557 12.8438ZM100.877 15.0208H99.232V13.7508H99.157C98.897 14.1858 98.497 14.5578 97.962 14.8508C97.427 15.1438 96.862 15.3108 96.262 15.3108C95.115 15.3108 94.248 14.9628 93.657 14.2638C93.066 13.5648 92.769 12.6308 92.769 11.4608V5.85477H94.489V11.1788C94.489 12.8868 95.242 13.7388 96.749 13.7388C97.0863 13.7459 97.4204 13.6716 97.7229 13.5223C98.0254 13.3729 98.2875 13.1529 98.487 12.8808C98.9316 12.3171 99.1688 11.6176 99.159 10.8998V5.85477H100.879V15.0118L100.877 15.0208ZM106.705 15.3178C105.522 15.3178 104.499 14.8498 103.641 13.9158C102.783 12.9818 102.353 11.8238 102.353 10.4398C102.353 9.05577 102.783 7.89777 103.641 6.96377C104.499 6.02977 105.523 5.56177 106.705 5.56177C107.401 5.56177 108.029 5.71177 108.585 6.00877C109.141 6.30577 109.555 6.68077 109.828 7.13077H109.903L109.828 5.86077V1.64077H111.548V15.0208H109.903V13.7508H109.828C109.555 14.1978 109.141 14.5728 108.585 14.8728C108.03 15.1668 107.402 15.3178 106.705 15.3178ZM106.985 13.7478C107.373 13.753 107.758 13.6758 108.114 13.5212C108.47 13.3665 108.789 13.138 109.05 12.8508C109.617 12.2538 109.9 11.4488 109.9 10.4508C109.9 9.45277 109.618 8.63777 109.05 8.05077C108.789 7.76353 108.47 7.53502 108.114 7.38038C107.758 7.22574 107.373 7.1485 106.985 7.15377C106.187 7.15377 105.502 7.45678 104.929 8.05978C104.356 8.66278 104.071 9.46477 104.071 10.4598C104.071 11.4548 104.356 12.2578 104.929 12.8598C105.188 13.148 105.505 13.3779 105.859 13.5341C106.214 13.6903 106.598 13.7693 106.985 13.7658V13.7478Z" fill="#1A1C3D" /></svg></svg>