<svg width="48" height="48" viewBox="0 0 48 48" fill="none" xmlns="http://www.w3.org/2000/svg">
<g clip-path="url(#clip0_1526_3436)">
<path d="M43.9 18.0001H43.36L35.04 30.0401L33.4 28.9001L40.94 18.0001H36.26C36.26 17.337 35.9966 16.7011 35.5277 16.2323C35.0589 15.7635 34.423 15.5001 33.76 15.5001C33.0969 15.5001 32.4611 15.7635 31.9922 16.2323C31.5234 16.7011 31.26 17.337 31.26 18.0001H30.4L27.9 26.0001L26 25.4001L28.3 18.0001H26.5C26.5 17.337 26.2366 16.7011 25.7677 16.2323C25.2989 15.7635 24.663 15.5001 24 15.5001C23.3369 15.5001 22.701 15.7635 22.2322 16.2323C21.7634 16.7011 21.5 17.337 21.5 18.0001H19.7L22 25.4001L20.1 26.0001L17.6 18.0001H16.76C16.76 17.337 16.4966 16.7011 16.0277 16.2323C15.5589 15.7635 14.923 15.5001 14.26 15.5001C13.5969 15.5001 12.961 15.7635 12.4922 16.2323C12.0234 16.7011 11.76 17.337 11.76 18.0001H7.01998L14.56 28.9001L12.92 30.0401L4.59998 18.0001H4.09998C4.59521 13.0663 6.90552 8.4925 10.5826 5.166C14.2598 1.83951 19.0415 -0.00244141 24 -0.00244141C28.9585 -0.00244141 33.7402 1.83951 37.4173 5.166C41.0944 8.4925 43.4047 13.0663 43.9 18.0001Z" fill="url(#paint0_linear_1526_3436)"/>
<path d="M22 30.81L19.172 28L11.936 35.19L9.10797 38L19.172 48L22 45.19L14.764 38L22 30.81ZM26.042 45.19L28.87 48L36.106 40.81L38.934 38L28.87 28L26.042 30.81L33.278 38L26.042 45.19Z" fill="url(#paint1_linear_1526_3436)"/>
</g>
<defs>
<linearGradient id="paint0_linear_1526_3436" x1="24" y1="-0.00244141" x2="24" y2="30.0401" gradientUnits="userSpaceOnUse">
<stop stop-color="#42389E"/>
<stop offset="1" stop-color="#0F1026"/>
</linearGradient>
<linearGradient id="paint1_linear_1526_3436" x1="24.021" y1="28" x2="24.021" y2="48" gradientUnits="userSpaceOnUse">
<stop stop-color="#42389E"/>
<stop offset="1" stop-color="#0F1026"/>
</linearGradient>
<clipPath id="clip0_1526_3436">
<rect width="48" height="48" fill="white"/>
</clipPath>
</defs>
</svg>
