<svg width="24" height="24" viewBox="0 0 24 24" fill="none" xmlns="http://www.w3.org/2000/svg">
<path d="M22.1072 7.10508C21.8637 7.34952 21.5742 7.54338 21.2555 7.67547C20.9368 7.80757 20.595 7.8753 20.25 7.87476C20.0714 7.87445 19.8934 7.85623 19.7184 7.82039L16.8525 13.1426C17.1968 13.4868 17.4386 13.9199 17.5508 14.3936C17.6631 14.8673 17.6414 15.3629 17.4882 15.825C17.335 16.2871 17.0564 16.6975 16.6833 17.0103C16.3103 17.3231 15.8577 17.526 15.376 17.5964C14.8943 17.6668 14.4025 17.6018 13.9556 17.4087C13.5087 17.2157 13.1243 16.9021 12.8453 16.5032C12.5663 16.1042 12.4038 15.6355 12.3759 15.1495C12.348 14.6635 12.4557 14.1793 12.6872 13.751L10.2441 11.3079C9.86185 11.5145 9.43447 11.6233 9 11.6248C8.82144 11.6245 8.64335 11.6063 8.46844 11.5704L5.6025 16.8916C5.96958 17.2588 6.21956 17.7265 6.32083 18.2357C6.42209 18.7449 6.37009 19.2727 6.17141 19.7523C5.97272 20.2319 5.63626 20.6419 5.20459 20.9303C4.77292 21.2188 4.26541 21.3727 3.74625 21.3727C3.22708 21.3727 2.71958 21.2188 2.2879 20.9303C1.85623 20.6419 1.51978 20.2319 1.32109 19.7523C1.1224 19.2727 1.0704 18.7449 1.17167 18.2357C1.27293 17.7265 1.52291 17.2588 1.89 16.8916C2.19773 16.5842 2.57704 16.358 2.99384 16.2335C3.41064 16.109 3.85185 16.09 4.27781 16.1782L7.14375 10.856C6.65227 10.3631 6.37628 9.69538 6.37628 8.99929C6.37628 8.30321 6.65227 7.63551 7.14375 7.14258C7.58958 6.69647 8.18112 6.4258 8.81016 6.38007C9.43919 6.33435 10.0637 6.51663 10.5693 6.89357C11.075 7.27051 11.428 7.81691 11.5639 8.4328C11.6997 9.04869 11.6092 9.6929 11.3091 10.2476L13.7522 12.6907C14.297 12.3977 14.9276 12.3057 15.5334 12.431L18.3994 7.10883C18.1556 6.86507 17.9622 6.57568 17.8303 6.25718C17.6983 5.93868 17.6304 5.59732 17.6304 5.25258C17.6304 4.90783 17.6983 4.56647 17.8303 4.24797C17.9622 3.92947 18.1556 3.64008 18.3994 3.39633C18.8917 2.90402 19.5594 2.62744 20.2556 2.62744C20.9519 2.62744 21.6196 2.90402 22.1119 3.39633C22.6042 3.88863 22.8808 4.55635 22.8808 5.25258C22.8808 5.9488 22.6042 6.61652 22.1119 7.10883L22.1072 7.10508Z" fill="url(#paint0_linear_1442_11202)"/>
<defs>
<linearGradient id="paint0_linear_1442_11202" x1="12.001" y1="2.62744" x2="12.001" y2="21.3727" gradientUnits="userSpaceOnUse">
<stop stop-color="#42389E"/>
<stop offset="1" stop-color="#0F1026"/>
</linearGradient>
</defs>
</svg>
